# xmcd
# Track frame offsets:
# 150
# 12661
# 23046
# 36330
# 50025
# 61709
# 73678
# 86058
# 97777
# 110643
# 121590
# 133986
# 146444
# 158557
# 169387
# 181785
# 192952
# 202735
# 214325
# 224806
#
# Disc length: 3179 seconds
# Revision: 0
# Processed by: cddbd v1.5.2PL0 Copyright (c) Steve Scherf et al.
# Submitted via: VisiTrax 2.11.3.279 - For more info visit www.synapsa.com
#
DISCID=250c6914
DTITLE=Various (1930s-1950s) Rock n Roll and Blues and Jazz Artists - Roots Of Ro
DTITLE=ck and Roll: Rough And Rowdy: CD10 of 10: *ReMastered Tracks
DYEAR=2014
DGENRE=Rock n Roll
TTITLE0=Sonny Dae And His Knights - Rock Around The Clock*
TTITLE1=Treniers The - Rock-A-Beatin Boogie*
TTITLE2=Big Mama Thornton - Hound Dog*
TTITLE3=Big Joe Turner - Shake, Rattle and Roll*
TTITLE4=Huey "Piano" Smith and The Clowns - Don't You Just Know It*
TTITLE5=Little Willie Littlefield - Kansas City*
TTITLE6=Louis Jordan and His Tympany Five - Choo Choo Ch'Boogie*
TTITLE7=Jimmy Preston - Rock The Joint*
TTITLE8=Bobby Charles - See You Later Alligator*
TTITLE9=Billy "The Kid" Emerson - Red Hot*
TTITLE10=Arthur Gunter - Let's Play House*
TTITLE11=Tiny Bradshaw - The Train Kept A-Rollin'*
TTITLE12=Big Maybelle - Whole Lotta Shakin' Goin' On
TTITLE13=Little Richard - Tutti Frutti*
TTITLE14=Ella Mae Morse - Razzle Dazzle*
TTITLE15=Bo Diddley - Bo Diddly*
TTITLE16=Ruth Brown - Lucky Lips*
TTITLE17=Milton Brown - Keep A Knockin'*
TTITLE18=Chuck Berry - Maybellene*
TTITLE19=Roy Brown - Good Rocking Tonight*
EXTD=Compilation and ReMastering: Documents/The Intense Media: 2014
EXTT0=
EXTT1=
EXTT2=
EXTT3=
EXTT4=
EXTT5=
EXTT6=
EXTT7=
EXTT8=
EXTT9=
EXTT10=
EXTT11=
EXTT12=
EXTT13=
EXTT14=
EXTT15=
EXTT16=
EXTT17=
EXTT18=
EXTT19=
PLAYORDER=
